# xmcd
#
# Track frame offsets: 
#        150
#        6263
#        18444
#        24824
#        28995
#        30802
#        31658
#        49414
#        58320
#        66115
#        120089
#        132745
#        140754
#        159474
#        169846
#        187629
#        199782
#        210671
#        219348
#        222324
#        235052
#        241290
#        317071
#        334648
#
# Disc length: 4685 seconds
#
# Revision: 0
# Processed by: cddbd v1.5.2PL0 Copyright (c) Steve Scherf et al.
# Submitted via: ExactAudioCopy v0.95b4
#
DISCID=4b124b18
DTITLE=The Beatles  - AB  Road - Complete Purple Chick Set v1.1 Jan.26
DTITLE=Various Artist - D3  FLAC
DYEAR=1900
DGENRE=
TTITLE0=Let It Be 26.47
TTITLE1=Let It Be 26.48
TTITLE2=Do Not Forsake Me Oh My Darling 26.49
TTITLE3=Let It Be 26.50
TTITLE4=You Really Got A Hold On Me 26.51
TTITLE5=Let It Be 26.52
TTITLE6=Let It Be 26.53
TTITLE7=Like A Rolling Stone 26.54
TTITLE8=Twist And Shout 26.55
TTITLE9=Dig It 26.56
TTITLE10=Rip It Up 26.57
TTITLE11=Shake, Rattle And Roll 26.58
TTITLE12=Kansas City - Miss Ann - Lawdy Miss Clawdy 26.59
TTITLE13=Blue Suede Shoes 26.60
TTITLE14=You Really Got A Hold On Me 26.61
TTITLE15=The Tracks Of My Tears 26.62
TTITLE16=Agent Double-O-Soul 26.63
TTITLE17=S.O.S. 26.64
TTITLE18=Rockin Pneumonia and the Boogie Woogie Flu 26.65
TTITLE19=I'm Movin On 26.66
TTITLE20=Improvisation 26.67
TTITLE21=Improvisation 26.68
TTITLE22=Improvisation 26.69
TTITLE23=Improvisation 26.70
EXTD=
EXTT0=
EXTT1=
EXTT2=
EXTT3=
EXTT4=
EXTT5=
EXTT6=
EXTT7=
EXTT8=
EXTT9=
EXTT10=
EXTT11=
EXTT12=
EXTT13=
EXTT14=
EXTT15=
EXTT16=
EXTT17=
EXTT18=
EXTT19=
EXTT20=
EXTT21=
EXTT22=
EXTT23=
PLAYORDER=
